# xmcd
#
# Track frame offsets: 
#        150
#        23475
#        41114
#        62053
#        75312
#        98306
#        125386
#        152431
#        165052
#        180401
#        201497
#        217278
#        235645
#        250932
#        270391
#        281400
#        314443
#
# Disc length: 4434 seconds
#
# Revision: 0
# Processed by: cddbd v1.5.2PL0 Copyright (c) Steve Scherf et al.
# Submitted via: ExactAudioCopy v0.99pb3
#
DISCID=d1115011
DTITLE=Various Artist - Losing Today - Painted Dream
DYEAR=1999
DGENRE=Losing Today
TTITLE0=State Of Grace - The Saddest Part
TTITLE1=Sister Sonny - Moon Pedro
TTITLE2=Arise From Thorns - Remember The Stars
TTITLE3=Starflyer59 - Hazel Would
TTITLE4=Jack Or Jive - Link Up The Trees
TTITLE5=Tin Foil Star - Believe Everything
TTITLE6=Mean Red Spiders - Places You Call Home
TTITLE7=Club 8 - Summer Rain
TTITLE8=Miss Bliss - Sore Eyes
TTITLE9=Falling You - When Will It End?
TTITLE10=Quigley - Laziness
TTITLE11=Ninetynine - Pale
TTITLE12=Auburn Lull - A Harbored Distance
TTITLE13=Area - Too Far Away
TTITLE14=Vir - Dapur
TTITLE15=Timonium - St. Perpetua
TTITLE16=Lanterna - Dog Days
EXTD=
EXTT0=
EXTT1=
EXTT2=
EXTT3=
EXTT4=
EXTT5=
EXTT6=
EXTT7=
EXTT8=
EXTT9=
EXTT10=
EXTT11=
EXTT12=
EXTT13=
EXTT14=
EXTT15=
EXTT16=
PLAYORDER=
